# xmcd CD database file
#
# Track frame offsets:
#	150
#	28273
#	51717
#	78658
#	100061
#	109307
#	132850
#	164100
#	190546
#	217564
#
# Disc length: 3196 seconds
#
# Revision: 0
# Processed by: cddbd v1.5.2PL0 Copyright (c) Steve Scherf et al.
# Submitted via: CDex 1.70beta2
#
DISCID=8b0c7a0a
DTITLE=Jean-Marie Machado - Soeurs de sang CD 2 - Trio time
DYEAR=2006
DGENRE=Jazz
TTITLE0=Flowers, teardrops from the stars
TTITLE1=Trio time
TTITLE2=fado amalia
TTITLE3=sisters
TTITLE4=canto lento
TTITLE5=meu fado
TTITLE6=strage fruit
TTITLE7=god bless the child
TTITLE8=in fragrance of white roses
TTITLE9=open blues
EXTD=YEAR: 2006
EXTT0=
EXTT1=
EXTT2=
EXTT3=
EXTT4=
EXTT5=
EXTT6=
EXTT7=
EXTT8=
EXTT9=
PLAYORDER=
